<svg width="7.444336" height="10.000000" viewBox="0 0 7.44434 10" fill="none" xmlns="http://www.w3.org/2000/svg" xmlns:xlink="http://www.w3.org/1999/xlink">
    <desc>
        Created with Pixso.
    </desc>
    <defs/>
    <path id="Я" d="M6.24 6.26L3.5 6.26L2.83 5.98C2.07 5.75 1.5 5.39 1.1 4.9C0.69 4.42 0.49 3.81 0.49 3.08C0.49 2.42 0.64 1.87 0.93 1.42C1.22 0.96 1.64 0.58 2.18 0.34C2.72 0.11 3.36 0 4.1 0L7.44 0L7.44 10L5.72 10L5.72 1.41L4.1 1.41C3.46 1.41 2.98 1.56 2.67 1.87C2.36 2.18 2.21 2.61 2.21 3.16C2.21 3.53 2.28 3.85 2.41 4.12C2.56 4.39 2.76 4.59 3.04 4.74C3.31 4.88 3.66 4.95 4.07 4.95L6.24 4.95L6.24 6.26ZM4.15 5.5L1.84 10L0 10L2.33 5.5L4.15 5.5Z" fill="#656E73" fill-opacity="1.000000" fill-rule="nonzero"/>
</svg>
